<svg width="384" height="64" viewBox="0 0 384 64" fill="none" xmlns="http://www.w3.org/2000/svg">
<rect width="64" height="64" rx="4" fill="#F76015"/>
<path fill-rule="evenodd" clip-rule="evenodd" d="M22.0572 15.3142C19.4694 15.3142 17.3715 17.4121 17.3715 19.9999C17.3715 22.5878 19.4694 24.6856 22.0572 24.6856H45.1429C47.7308 24.6856 49.8286 22.5878 49.8286 19.9999C49.8286 17.4121 47.7308 15.3142 45.1429 15.3142H22.0572ZM17.3715 33.9429C17.3715 31.355 19.4693 29.2571 22.0572 29.2571H36C38.5879 29.2571 40.6857 31.355 40.6857 33.9429C40.6857 36.5307 38.5879 38.6286 36 38.6286H22.0572C19.4693 38.6286 17.3715 36.5307 17.3715 33.9429ZM17.3715 47.7714C17.3715 45.2467 19.4182 43.2 21.9429 43.2C24.4676 43.2 26.5143 45.2467 26.5143 47.7714V48C26.5143 50.5247 24.4676 52.5714 21.9429 52.5714C19.4182 52.5714 17.3715 50.5247 17.3715 48V47.7714Z" fill="white"/>
<g clip-path="url(#clip0_28_2029)">
<path fill-rule="evenodd" clip-rule="evenodd" d="M114 17V7H84V17V27V37V57H94V37H114V27L94 27V17L114 17ZM297 16H287V56H297V16ZM236.015 22.6246C233.538 19.9057 230.212 18.5462 226.037 18.5462C221.23 18.5462 217.613 20.2941 215.185 23.7899C213.049 20.2941 209.748 18.5462 205.281 18.5462C200.717 18.5462 197.342 20.1727 195.157 23.4258V19.5658H185.762V55.9804H195.157V35.5154C195.157 32.845 195.764 30.8058 196.978 29.3977C198.241 27.9897 199.916 27.2857 202.003 27.2857C203.945 27.2857 205.451 27.8926 206.519 29.1064C207.587 30.3202 208.121 32.0196 208.121 34.2045V55.9804H217.516V35.5154C217.516 32.845 218.099 30.8058 219.264 29.3977C220.478 27.9897 222.153 27.2857 224.289 27.2857C226.231 27.2857 227.736 27.8926 228.804 29.1064C229.873 30.3202 230.407 32.0196 230.407 34.2045V55.9804H239.802V33.549C239.802 28.985 238.539 25.3436 236.015 22.6246ZM282.666 19.5658H273.271V23.8627C270.455 20.3184 266.498 18.5462 261.4 18.5462C256.545 18.5462 252.369 20.4155 248.873 24.154C245.426 27.8441 243.703 32.3837 243.703 37.7731C243.703 43.1624 245.426 47.7264 248.873 51.465C252.369 55.155 256.545 57 261.4 57C266.498 57 270.455 55.2278 273.271 51.6835V55.9804H282.666V19.5658ZM263.148 48.042C260.235 48.042 257.831 47.0952 255.938 45.2017C254.044 43.2596 253.097 40.7834 253.097 37.7731C253.097 34.7628 254.044 32.3109 255.938 30.4174C257.831 28.4752 260.235 27.5042 263.148 27.5042C266.061 27.5042 268.464 28.4752 270.358 30.4174C272.3 32.3109 273.271 34.7628 273.271 37.7731C273.271 40.7834 272.3 43.2596 270.358 45.2017C268.464 47.0952 266.061 48.042 263.148 48.042ZM161.201 37.3561C161.201 29.1282 166.7 21.9148 174.634 19.7347L175.248 19.5658C175.248 19.5658 179.19 18.8375 181.666 18.8375V29.3249C178.802 28.9851 176.228 29.5677 173.947 31.0728C171.713 32.578 170.596 35.0784 170.596 38.5742V55.9804H161.201V46.8767V40.049V37.3561ZM137.962 57C143.558 57 148.296 55.0808 152.178 51.2424C156.059 47.3535 158 42.6061 158 37C158 31.3939 156.059 26.6717 152.178 22.8333C148.296 18.9444 143.558 17 137.962 17C132.367 17 127.628 18.9444 123.747 22.8333C119.916 26.6717 118 31.3939 118 37C118 42.6061 119.916 47.3535 123.747 51.2424C127.628 55.0808 132.367 57 137.962 57ZM137.962 47.4545C135.038 47.4545 132.594 46.4697 130.628 44.5C128.712 42.5303 127.754 40.0303 127.754 37C127.754 33.9697 128.712 31.4697 130.628 29.5C132.594 27.5303 135.038 26.5455 137.962 26.5455C140.886 26.5455 143.331 27.5303 145.297 29.5C147.263 31.4697 148.246 33.9697 148.246 37C148.246 40.0303 147.263 42.5303 145.297 44.5C143.331 46.4697 140.886 47.4545 137.962 47.4545ZM335.178 51.2424C331.296 55.0808 326.558 57 320.962 57C315.367 57 310.628 55.0808 306.747 51.2424C302.916 47.3535 301 42.6061 301 37C301 31.3939 302.916 26.6717 306.747 22.8333C310.628 18.9444 315.367 17 320.962 17C326.558 17 331.296 18.9444 335.178 22.8333C339.059 26.6717 341 31.3939 341 37C341 42.6061 339.059 47.3535 335.178 51.2424ZM313.628 44.5C315.594 46.4697 318.038 47.4545 320.962 47.4545C323.886 47.4545 326.331 46.4697 328.297 44.5C330.263 42.5303 331.246 40.0303 331.246 37C331.246 33.9697 330.263 31.4697 328.297 29.5C326.331 27.5303 323.886 26.5455 320.962 26.5455C318.038 26.5455 315.594 27.5303 313.628 29.5C311.712 31.4697 310.754 33.9697 310.754 37C310.754 40.0303 311.712 42.5303 313.628 44.5ZM363.962 57C369.558 57 374.296 55.0808 378.178 51.2424C382.059 47.3535 384 42.6061 384 37C384 31.3939 382.059 26.6717 378.178 22.8333C374.296 18.9444 369.558 17 363.962 17C358.367 17 353.628 18.9444 349.747 22.8333C345.916 26.6717 344 31.3939 344 37C344 42.6061 345.916 47.3535 349.747 51.2424C353.628 55.0808 358.367 57 363.962 57ZM363.962 47.4545C361.038 47.4545 358.594 46.4697 356.628 44.5C354.712 42.5303 353.754 40.0303 353.754 37C353.754 33.9697 354.712 31.4697 356.628 29.5C358.594 27.5303 361.038 26.5455 363.962 26.5455C366.886 26.5455 369.331 27.5303 371.297 29.5C373.263 31.4697 374.246 33.9697 374.246 37C374.246 40.0303 373.263 42.5303 371.297 44.5C369.331 46.4697 366.886 47.4545 363.962 47.4545Z" fill="#1A1A1A"/>
</g>
<defs>
<clipPath id="clip0_28_2029">
<rect width="300" height="50" fill="white" transform="translate(84 7)"/>
</clipPath>
</defs>
</svg>
